<svg xmlns="http://www.w3.org/2000/svg" width="43.928" height="47.032" viewBox="0 0 43.928 47.032"><defs><style>.a{opacity:0.9;}.b{fill:#85827e;}</style></defs><g class="a"><g transform="translate(0 0)"><path class="b" d="M32.231,30.42a20.07,20.07,0,0,0-2.779-25.8,17,17,0,0,0-24.238,1A20.108,20.108,0,0,0,4.3,31.573,17.029,17.029,0,0,0,28.4,34.53h0a3.389,3.389,0,0,0,.269.338l10.57,11.318a2.619,2.619,0,0,0,3.883,0,3.09,3.09,0,0,0,0-4.158L32.546,30.711a2.83,2.83,0,0,0-.316-.294Zm.708-11.3c0,8.93-6.76,16.169-15.1,16.169S2.74,28.05,2.74,19.12,9.5,2.951,17.839,2.951s15.1,7.239,15.1,16.169Z" transform="translate(0.008 -0.016)"/></g></g></svg>